<?xml version="1.0" standalone="no"?>
<!DOCTYPE svg PUBLIC "-//W3C//DTD SVG 20010904//EN"
 "http://www.w3.org/TR/2001/REC-SVG-20010904/DTD/svg10.dtd">
<svg version="1.0" xmlns="http://www.w3.org/2000/svg"
 width="248.000000pt" height="56.000000pt" viewBox="0 0 248.000000 56.000000"
 preserveAspectRatio="xMidYMid meet">

<g transform="translate(0.000000,56.000000) scale(0.100000,-0.100000)"
fill="#000000" stroke="none">
<path d="M0 280 l0 -280 1240 0 1240 0 0 280 0 280 -836 0 -836 0 21 -34 c30
-48 27 -56 -24 -56 -51 0 -54 8 -24 56 l21 34 -401 0 -401 0 0 -280z m850 144
c0 -4 -14 -31 -31 -60 l-30 -54 -66 0 c-35 0 -63 3 -61 8 2 4 17 31 33 60 l30
52 63 0 c34 0 62 -3 62 -6z m84 -97 c3 3 10 -6 17 -20 10 -21 7 -32 -17 -76
-16 -28 -31 -51 -34 -51 -3 0 -18 24 -32 53 -24 50 -25 55 -10 79 13 22 19 24
43 18 15 -5 30 -6 33 -3z m176 -7 c-16 -4 -25 -13 -25 -25 0 -12 10 -22 25
-27 23 -6 23 -7 -5 -5 -24 2 -31 7 -33 26 -4 29 22 53 46 43 14 -5 12 -7 -8
-12z m131 -10 c10 0 19 -5 19 -12 0 -9 3 -9 12 0 17 17 45 15 52 -3 4 -10 -1
-15 -17 -16 -21 0 -21 -1 -2 -9 20 -9 20 -9 0 -9 -12 -1 -26 4 -33 11 -9 9
-12 9 -12 0 0 -7 -11 -12 -25 -12 -22 0 -25 4 -24 38 0 20 3 31 6 25 2 -7 13
-13 24 -13z m132 -43 c18 -4 17 -5 -5 -6 -26 -1 -28 2 -26 37 1 36 1 36 5 5 3
-23 10 -33 26 -36z m-204 3 c5 0 12 10 14 23 4 18 4 17 6 -6 1 -24 -2 -28 -21
-25 -16 2 -24 11 -25 28 -3 25 -3 25 7 3 5 -13 14 -23 19 -23z m281 15 c0 -20
-5 -25 -24 -25 -13 0 -26 6 -29 13 -7 22 4 37 29 37 19 0 24 -5 24 -25z m65 0
c0 -13 -8 -21 -22 -23 -13 -2 -23 1 -23 6 0 6 9 8 20 5 14 -4 20 0 20 12 0 12
-6 16 -20 12 -11 -3 -20 -1 -20 5 0 5 10 8 23 6 14 -2 22 -10 22 -23z m-712
-52 c13 -21 29 -48 36 -61 l12 -23 -67 3 -68 3 -27 45 c-15 25 -28 48 -28 52
-1 4 20 9 47 11 26 2 53 4 59 5 7 1 23 -15 36 -35z m47 -136 c0 -10 -39 -77
-45 -77 -7 0 -45 68 -45 79 0 8 16 11 45 10 25 -2 45 -7 45 -12z"/>
<path d="M1220 285 c0 -8 7 -15 15 -15 8 0 15 7 15 15 0 8 -7 15 -15 15 -8 0
-15 -7 -15 -15z"/>
<path d="M1407 294 c-9 -10 2 -24 19 -24 8 0 14 7 14 15 0 15 -21 21 -33 9z"/>
</g>
</svg>
